# xmcd
#
# Track frame offsets:
#	150
#	20916
#	39405
#	56194
#	72618
#	89154
#	103617
#	122508
#	148683
#	166825
#	181308
#	195966
#	218514
#	234274
#	250749
#	260422
#	276395
#	288847
#	307065
#	324713
#
# Disc length: 4531 seconds
# Revision: 2
# Processed by: cddbd v1.5.2PL0 Copyright (c) Steve Scherf et al.
# Submitted via: dBpowerAMP V12.0
#
DISCID=2d11b114
DTITLE=Mikko Alatalo - Kantri 3
DYEAR=2013
DGENRE=Iskelm‰
TTITLE0=Duunari
TTITLE1=Jippijai-Jou
TTITLE2=Rock'n Roll-Aaiehen Viidenkympin Kriisi
TTITLE3=Vie Mut Takas Ouluun
TTITLE4=Synnyinkoti
TTITLE5=Muistathan
TTITLE6=Jambalaya
TTITLE7=Itkuk‰nnit
TTITLE8=Julkkis
TTITLE9=On Kotipiha Hiljainen
TTITLE10=Virtasen Bensis
TTITLE11=Sulohuulet
TTITLE12=Uusi Allakka (Kes‰‰ Odotan)
TTITLE13=Nautitaan Nyt T‰st‰
TTITLE14=Lompolon Kuu
TTITLE15=Kouluampuja?
TTITLE16=S‰ Joka P‰iv‰ Hiljaa Tapat Mua
TTITLE17=N‰ill‰ Menn‰‰n
TTITLE18=Maalaispojan Ik‰v‰ (Nuori Is‰nt‰)
TTITLE19=T‰m‰ Maa
EXTD=
EXTT0=
EXTT1=
EXTT2=
EXTT3=
EXTT4=
EXTT5=
EXTT6=
EXTT7=
EXTT8=
EXTT9=
EXTT10=
EXTT11=
EXTT12=
EXTT13=
EXTT14=
EXTT15=
EXTT16=
EXTT17=
EXTT18=
EXTT19=
PLAYORDER=
